<?xml version="1.0" encoding="utf-8"?>
<!-- Generator: Adobe Illustrator 18.0.0, SVG Export Plug-In . SVG Version: 6.00 Build 0)  -->
<!DOCTYPE svg PUBLIC "-//W3C//DTD SVG 1.1//EN" "http://www.w3.org/Graphics/SVG/1.1/DTD/svg11.dtd">
<svg version="1.1" id="Layer_1" xmlns="http://www.w3.org/2000/svg" xmlns:xlink="http://www.w3.org/1999/xlink" x="0px" y="0px"
	 width="841.9px" height="595.3px" viewBox="0 0 841.9 595.3" enable-background="new 0 0 841.9 595.3" xml:space="preserve">
<g>
	<rect x="0" fill="#FFFFFF" width="841.9" height="595.3"/>
	<g>
		<g>
			<radialGradient id="SVGID_1_" cx="428.4446" cy="305.1396" r="315.587" gradientUnits="userSpaceOnUse">
				<stop  offset="0" style="stop-color:#00AEEF"/>
				<stop  offset="1" style="stop-color:#1C75BC"/>
			</radialGradient>
			<polygon fill="url(#SVGID_1_)" points="419.9,182.8 388.6,180.3 387.4,160.2 410.6,157.7 410,142 388,143.3 387.4,128.8
				419.9,126.3 416.9,108.1 367.9,116.3 367.9,196.7 419.9,199.2 			"/>
			<radialGradient id="SVGID_2_" cx="428.4446" cy="305.1394" r="315.5873" gradientUnits="userSpaceOnUse">
				<stop  offset="0" style="stop-color:#00AEEF"/>
				<stop  offset="1" style="stop-color:#1C75BC"/>
			</radialGradient>
			<path fill="url(#SVGID_2_)" d="M469,164.9c1.3,12.9-27.6,19.3-27.6,19.3l4.4,15.6c0,0,39.6-1.3,42.7-20.1
				c3.1-18.8-30.1-40.8-30.1-47.7c0-6.9,23.9-10,23.9-10l-1.3-14.4c0,0-42.7,1.3-42.7,22.6C438.2,151.4,467.7,152.1,469,164.9z"/>
			<radialGradient id="SVGID_3_" cx="428.4446" cy="305.1403" r="315.5876" gradientUnits="userSpaceOnUse">
				<stop  offset="0" style="stop-color:#00AEEF"/>
				<stop  offset="1" style="stop-color:#1C75BC"/>
			</radialGradient>
			<path fill="url(#SVGID_3_)" d="M543.6,197.9c-4.9-2.6-6.9-30.1-7.7-57.4h9v-17.6h-9.4c-0.3-21.2,0.1-38.5,0.1-38.5h-27.6
				c0,0-0.6,16.9-0.6,38.5h-10.5v17.6h10.7c0.5,28.9,2.5,60.2,8.5,70.7c12,21.2,58.1,7.3,58.1,7.3v-17.9
				C574.2,200.5,553.6,203.2,543.6,197.9z"/>
			<radialGradient id="SVGID_4_" cx="428.4443" cy="305.1402" r="315.5875" gradientUnits="userSpaceOnUse">
				<stop  offset="0" style="stop-color:#00AEEF"/>
				<stop  offset="1" style="stop-color:#1C75BC"/>
			</radialGradient>
			<path fill="url(#SVGID_4_)" d="M351.6,177.4c-6-22.9-33-24.9-33-24.9s33.8-13,24-46.8C332.8,71.9,271.2,87,271.2,87l8.7,134.6
				C348,232.2,357.6,200.4,351.6,177.4z M324.4,182.8c0.9,12.7-18.8,22.2-18.8,22.2l-5.7-36.3h2.4
				C302.3,168.7,323.5,170.1,324.4,182.8z M295.2,104.7c0,0,21.2,1.4,22.1,14.1S298.5,141,298.5,141l-5.7-36.3H295.2z"/>
		</g>
		<g>
			<radialGradient id="SVGID_5_" cx="435.337" cy="305.1396" r="315.5871" gradientUnits="userSpaceOnUse">
				<stop  offset="0" style="stop-color:#00AEEF"/>
				<stop  offset="1" style="stop-color:#1C75BC"/>
			</radialGradient>
			<polygon fill="url(#SVGID_5_)" points="290.1,331.9 257.4,329.3 256.1,308.3 280.4,305.6 279.7,289.2 256.7,290.5 256.1,275.4
				290.1,272.7 287,253.7 235.7,262.2 235.7,346.4 290.1,349.1 			"/>
			<radialGradient id="SVGID_6_" cx="435.3372" cy="305.1396" r="315.5876" gradientUnits="userSpaceOnUse">
				<stop  offset="0" style="stop-color:#00AEEF"/>
				<stop  offset="1" style="stop-color:#1C75BC"/>
			</radialGradient>
			<polygon fill="url(#SVGID_6_)" points="569.7,253.7 518.4,262.2 518.4,346.4 572.8,349.1 572.8,331.9 540.1,329.3 538.8,308.3
				563.1,305.6 562.5,289.2 539.5,290.5 538.8,275.4 572.8,272.7 			"/>
			<radialGradient id="SVGID_7_" cx="418.0109" cy="305.1396" r="315.588" gradientUnits="userSpaceOnUse">
				<stop  offset="0" style="stop-color:#00AEEF"/>
				<stop  offset="1" style="stop-color:#1C75BC"/>
			</radialGradient>
			<path fill="url(#SVGID_7_)" d="M676.2,278.7c0-7.2,25-10.5,25-10.5l-1.3-15.1c0,0-44.7,1.3-44.7,23.7c0,22.4,30.9,23,32.2,36.5
				c1.3,13.5-28.9,20.2-28.9,20.2l4.6,16.3c0,0,41.4-1.3,44.7-21.1S676.2,285.9,676.2,278.7z"/>
			<radialGradient id="SVGID_8_" cx="435.3371" cy="305.1396" r="315.5867" gradientUnits="userSpaceOnUse">
				<stop  offset="0" style="stop-color:#00AEEF"/>
				<stop  offset="1" style="stop-color:#1C75BC"/>
			</radialGradient>
			<polygon fill="url(#SVGID_8_)" points="133.8,262.1 164.9,266.6 160.5,357.9 193.1,361.3 196,269.5 225.6,273 225.6,243.9
				133.8,241.4 			"/>
			<radialGradient id="SVGID_9_" cx="435.3373" cy="305.1396" r="315.5874" gradientUnits="userSpaceOnUse">
				<stop  offset="0" style="stop-color:#00AEEF"/>
				<stop  offset="1" style="stop-color:#1C75BC"/>
			</radialGradient>
			<path fill="url(#SVGID_9_)" d="M427.9,276.8v-19.7c0,0-51.3-6.9-51.3,41.9c0,48.9,45.4,46.9,45.4,46.9l5.9-16.8
				c0,0-34-2-32.1-30.6C397.8,269.9,427.9,276.8,427.9,276.8z"/>
			<radialGradient id="SVGID_10_" cx="435.3372" cy="305.1396" r="315.5871" gradientUnits="userSpaceOnUse">
				<stop  offset="0" style="stop-color:#00AEEF"/>
				<stop  offset="1" style="stop-color:#1C75BC"/>
			</radialGradient>
			<path fill="url(#SVGID_10_)" d="M320.4,254.7l-13.8,89.8l20.7,3.5l4.4-33.1l19.7-1.5l5.4,27.6l19.7-3l-19.7-83.4H320.4z
				 M333.7,301.4l5.2-26.9l10.6,24.2L333.7,301.4z"/>
			<radialGradient id="SVGID_11_" cx="435.3373" cy="305.1396" r="315.5872" gradientUnits="userSpaceOnUse">
				<stop  offset="0" style="stop-color:#00AEEF"/>
				<stop  offset="1" style="stop-color:#1C75BC"/>
			</radialGradient>
			<path fill="url(#SVGID_11_)" d="M463.5,297.7l-2-66.3h-21.7l5.4,129.6l17.8-3.5v-41c0,0,14.8-5.4,23.7,3.5c8.9,8.9,0,48.4,0,48.4
				l16.3,3c0,0,8.9-42.4,2.5-59.7C499,294.4,463.5,297.7,463.5,297.7z"/>
			<radialGradient id="SVGID_12_" cx="435.3372" cy="305.1396" r="315.5879" gradientUnits="userSpaceOnUse">
				<stop  offset="0" style="stop-color:#00AEEF"/>
				<stop  offset="1" style="stop-color:#1C75BC"/>
			</radialGradient>
			<path fill="url(#SVGID_12_)" d="M630.2,255.8c-13.3-1-22.2,9.9-22.2,9.9l1.5-12l-20.7,2.1l4.4,93.3h17.3v-65.1
				c0,0,2.5-10.4,11.3-9.9c8.9,0.5,9.4,18.8,9.4,18.8l15.3-3.5C646.5,289.3,643.6,256.8,630.2,255.8z"/>
		</g>
		<g>
			<radialGradient id="SVGID_13_" cx="428.4447" cy="305.14" r="315.5864" gradientUnits="userSpaceOnUse">
				<stop  offset="0" style="stop-color:#00AEEF"/>
				<stop  offset="1" style="stop-color:#1C75BC"/>
			</radialGradient>
			<polygon fill="url(#SVGID_13_)" points="347,400 271.7,412.6 271.7,536.1 351.6,540 351.6,514.9 303.6,511 301.7,480.1
				337.4,476.3 336.4,452.1 302.6,454.1 301.7,431.9 351.6,428 			"/>
			<radialGradient id="SVGID_14_" cx="428.4446" cy="305.14" r="315.5873" gradientUnits="userSpaceOnUse">
				<stop  offset="0" style="stop-color:#00AEEF"/>
				<stop  offset="1" style="stop-color:#1C75BC"/>
			</radialGradient>
			<polygon fill="url(#SVGID_14_)" points="400.3,488.3 381.4,426.3 365.6,433 384.3,510.3 414.3,513.7 434.9,433 412.9,429.7
				"/>
			<radialGradient id="SVGID_15_" cx="428.4446" cy="305.1393" r="315.5871" gradientUnits="userSpaceOnUse">
				<stop  offset="0" style="stop-color:#00AEEF"/>
				<stop  offset="1" style="stop-color:#1C75BC"/>
			</radialGradient>
			<polygon fill="url(#SVGID_15_)" points="496.9,422.3 445.6,430.9 445.6,515.1 500,517.7 500,500.6 467.3,498 466,476.9
				490.3,474.3 489.6,457.8 466.6,459.1 466,444 500,441.4 			"/>
			<radialGradient id="SVGID_16_" cx="428.4445" cy="305.1393" r="315.5867" gradientUnits="userSpaceOnUse">
				<stop  offset="0" style="stop-color:#00AEEF"/>
				<stop  offset="1" style="stop-color:#1C75BC"/>
			</radialGradient>
			<path fill="url(#SVGID_16_)" d="M557.4,424.4c-13.3-1-22.2,9.9-22.2,9.9l1.5-12l-20.7,2.1l4.4,93.3h17.3v-65.1
				c0,0,2.5-10.4,11.3-9.9c8.9,0.5,9.4,18.8,9.4,18.8l15.3-3.5C573.7,458,570.7,425.4,557.4,424.4z"/>
		</g>
		<g>
			<path fill="#00A79D" d="M597.4,115c0,0-2.4-34.4-18.7-24.4s15,65.7,15,65.7s39.2-50.6,28.5-60.7C611.5,85.5,597.4,115,597.4,115z
				"/>
			<path fill="#EF5BA1" d="M643.2,98.5c0,0,2.2-18-7.2-14.4c-9.4,3.6,1.2,35.4,1.2,35.4s25.2-22.2,20.7-28.5S643.2,98.5,643.2,98.5z
				"/>
		</g>
		<g>
			<path fill="#EF5BA1" d="M229.9,126.4c0,0,3.6-34.3,19.5-23.7c15.9,10.6-17.3,65.1-17.3,65.1s-37.4-51.9-26.3-61.6
				C216.9,96.5,229.9,126.4,229.9,126.4z"/>
			<path fill="#EF5BA1" d="M175.3,99c0,0-9.8-15.3-14.8-6.5c-5,8.7,23.5,26.5,23.5,26.5s5.3-33.2-2.2-35.1
				C174.3,81.8,175.3,99,175.3,99z"/>
		</g>
		<path fill="#00A79D" d="M214.7,420.1c0,0-14.3-31.4-26-16.3c-11.8,15.1,37,56.3,37,56.3s19-61.1,5.5-66.8
			C217.6,387.6,214.7,420.1,214.7,420.1z"/>
		<path fill="#EF5BA1" d="M609.1,423.8c0,0,0.5-20.6-9.8-15.5c-10.2,5.1,5.3,39.8,5.3,39.8s26-27.9,20.2-34.5
			C619,407.1,609.1,423.8,609.1,423.8z"/>
		<g>
			<g>
				<path fill="#FFDE17" d="M608.4,498.6c9.7,0,9.7-15,0-15C598.8,483.6,598.8,498.6,608.4,498.6L608.4,498.6z"/>
			</g>
			<g>
				<path fill="#FFDE17" d="M395.4,389.9c9.7,0,9.7-15,0-15C385.7,374.9,385.7,389.9,395.4,389.9L395.4,389.9z"/>
			</g>
			<g>
				<path fill="#FFDE17" d="M241,489.6c9.7,0,9.7-15,0-15C231.3,474.6,231.3,489.6,241,489.6L241,489.6z"/>
			</g>
			<g>
				<path fill="#FFDE17" d="M185.5,164.1c9.7,0,9.7-15,0-15S175.8,164.1,185.5,164.1L185.5,164.1z"/>
			</g>
			<g>
				<path fill="#FFDE17" d="M256,74.2c9.7,0,9.7-15,0-15C246.3,59.2,246.3,74.2,256,74.2L256,74.2z"/>
			</g>
			<g>
				<path fill="#FFDE17" d="M626.4,189.6c9.7,0,9.7-15,0-15C616.8,174.6,616.8,189.6,626.4,189.6L626.4,189.6z"/>
			</g>
			<g>
				<path fill="#FFDE17" d="M566.4,68.2c9.7,0,9.7-15,0-15C556.8,53.2,556.8,68.2,566.4,68.2L566.4,68.2z"/>
			</g>
			<g>
				<path fill="#FFDE17" d="M130.2,339.1c9.7,0,9.7-15,0-15S120.5,339.1,130.2,339.1L130.2,339.1z"/>
			</g>
			<g>
				<path fill="#FFDE17" d="M725.9,255.6c9.7,0,9.7-15,0-15C716.2,240.6,716.2,255.6,725.9,255.6L725.9,255.6z"/>
			</g>
			<g>
				<path fill="#FFDE17" d="M647.4,460.1c14.2,0,14.2-22,0-22C633.2,438.1,633.2,460.1,647.4,460.1L647.4,460.1z"/>
			</g>
			<g>
				<path fill="#FFDE17" d="M393.9,238c14.2,0,14.2-22,0-22S379.7,238,393.9,238L393.9,238z"/>
			</g>
			<g>
				<path fill="#FFDE17" d="M233.5,215.6c14.2,0,14.2-22,0-22C219.3,193.6,219.3,215.6,233.5,215.6L233.5,215.6z"/>
			</g>
			<g>
				<path fill="#FFDE17" d="M443.4,74.7c14.2,0,14.2-22,0-22S429.3,74.7,443.4,74.7L443.4,74.7z"/>
			</g>
			<g>
				<path fill="#FFDE17" d="M672.9,160.1c14.2,0,14.2-22,0-22C658.7,138.1,658.7,160.1,672.9,160.1L672.9,160.1z"/>
			</g>
			<g>
				<path fill="#FFDE17" d="M100.2,285.6c14.2,0,14.2-22,0-22S86,285.6,100.2,285.6L100.2,285.6z"/>
			</g>
			<g>
				<path fill="#FFDE17" d="M148,427.1c14.2,0,14.2-22,0-22S133.8,427.1,148,427.1L148,427.1z"/>
			</g>
			<g>
				<path fill="#FFDE17" d="M743.9,319.1c14.2,0,14.2-22,0-22C729.7,297.1,729.7,319.1,743.9,319.1L743.9,319.1z"/>
			</g>
			<g>
				<path fill="#FFDE17" d="M566.4,412.6c7.1,0,7.1-11,0-11C559.3,401.6,559.3,412.6,566.4,412.6L566.4,412.6z"/>
			</g>
			<g>
				<path fill="#FFDE17" d="M650.4,498.1c7.1,0,7.1-11,0-11C643.3,487.1,643.3,498.1,650.4,498.1L650.4,498.1z"/>
			</g>
			<g>
				<path fill="#FFDE17" d="M659.4,385.6c7.1,0,7.1-11,0-11C652.3,374.6,652.3,385.6,659.4,385.6L659.4,385.6z"/>
			</g>
			<g>
				<path fill="#FFDE17" d="M193,504.1c7.1,0,7.1-11,0-11C185.9,493.1,185.9,504.1,193,504.1L193,504.1z"/>
			</g>
			<g>
				<path fill="#FFDE17" d="M262,393.1c7.1,0,7.1-11,0-11C254.9,382.1,254.9,393.1,262,393.1L262,393.1z"/>
			</g>
			<g>
				<path fill="#FFDE17" d="M188.5,196.6c7.1,0,7.1-11,0-11C181.4,185.6,181.4,196.6,188.5,196.6L188.5,196.6z"/>
			</g>
			<g>
				<path fill="#FFDE17" d="M512.4,63.2c7.1,0,7.1-11,0-11C505.3,52.2,505.3,63.2,512.4,63.2L512.4,63.2z"/>
			</g>
			<g>
				<path fill="#FFDE17" d="M695.4,115.6c7.1,0,7.1-11,0-11C688.3,104.6,688.3,115.6,695.4,115.6L695.4,115.6z"/>
			</g>
			<g>
				<path fill="#FFDE17" d="M686.4,235.6c7.1,0,7.1-11,0-11C679.3,224.6,679.3,235.6,686.4,235.6L686.4,235.6z"/>
			</g>
			<g>
				<path fill="#FFDE17" d="M727.4,349.6c7.1,0,7.1-11,0-11C720.3,338.6,720.3,349.6,727.4,349.6L727.4,349.6z"/>
			</g>
			<g>
				<path fill="#FFDE17" d="M429.9,399.1c7.1,0,7.1-11,0-11C422.9,388.1,422.9,399.1,429.9,399.1L429.9,399.1z"/>
			</g>
			<g>
				<path fill="#FFDE17" d="M488.4,249.1c7.1,0,7.1-11,0-11C481.3,238.1,481.3,249.1,488.4,249.1L488.4,249.1z"/>
			</g>
			<g>
				<path fill="#FFDE17" d="M431.4,543.1c7.1,0,7.1-11,0-11C424.4,532.1,424.4,543.1,431.4,543.1L431.4,543.1z"/>
			</g>
			<g>
				<path fill="#FFDE17" d="M372.9,91.7c7.1,0,7.1-11,0-11C365.9,80.7,365.9,91.7,372.9,91.7L372.9,91.7z"/>
			</g>
		</g>
	</g>
</g>
</svg>
