<svg width="415.7175048828125px" height="122.021240234375px" xmlns="http://www.w3.org/2000/svg" viewBox="42.14124755859376 13.9893798828125 415.7175048828125 122.021240234375" style="background: rgba(0, 0, 0, 0);" preserveAspectRatio="xMidYMid"><defs><linearGradient id="editing-shiny-gradient" x1="0.04322727117869957" x2="0.9567727288213004" y1="0.2966316784620999" y2="0.7033683215379001" gradientUnits="objectBoundingBox"><stop offset="0.0" stop-color="#ffb200"></stop><stop offset="0.5" stop-color="#e10057"></stop><stop offset="1.0" stop-color="#5A1A80"></stop></linearGradient><linearGradient id="editing-shiny-gradient2" x1="0" x2="0" y1="0" y2="1"><stop offset="0.2" stop-color="#fff" stop-opacity="0.8"></stop><stop offset="0.8" stop-color="#fff" stop-opacity="0"></stop></linearGradient><filter id="editing-shiny2" x="-100%" y="-100%" width="300%" height="300%"><feMorphology operator="erode" radius="2"></feMorphology></filter><filter id="editing-shiny" x="-100%" y="-100%" width="300%" height="300%"><feFlood flood-color="#fff" result="flood"></feFlood><feConvolveMatrix in="SourceGraphic" result="conv" order="8,8" divisor="1" kernelMatrix="0 0 0 0 0 0 0 0 0 0 0 1 1 0 0 0 0 0 0 1 1 0 0 0 0 0 1 0 0 1 0 0 0 0 1 0 0 1 0 0 0 1 0 0 0 0 1 0 0 1 1 0 0 1 1 0 0 0 0 1 1 0 0 0 "></feConvolveMatrix><feOffset dx="0" dy="4" in="conv" result="offset"></feOffset><feComposite operator="in" in="flood" in2="offset" result="comp"></feComposite><feGaussianBlur in="offset" stdDeviation="3" result="shadow"></feGaussianBlur><feColorMatrix in="shadow" type="matrix" values="0.7 0 0 0 0  0 0.7 0 0 0  0 0 0.7 0 0  0 0 0 0.3 0" result="dark-shadow"></feColorMatrix><feOffset dx="0" dy="4" in="dark-shadow" result="offset-shadow"></feOffset><feOffset dx="0" dy="2" in="conv" result="offset-2"></feOffset><feComposite operator="out" in="offset" in2="offset-2" result="edge-diff"></feComposite><feGaussianBlur in="edge-diff" stdDeviation="1" result="edge-blur"></feGaussianBlur><feColorMatrix in="edge-blur" result="edge-shadow" type="matrix" values="0 0 0 0 0  0 0 0 0 0  0 0 0 0 0  0 0 0 0.5 0"></feColorMatrix><feComposite operator="in" in="edge-shadow" in2="offset" result="edge-shadow-in"></feComposite><feOffset dx="0" dy="1" in="edge-shadow-in" result="edge-shadow-final"></feOffset><feMerge result="out"><feMergeNode in="offset-shadow"></feMergeNode><feMergeNode in="comp"></feMergeNode><feMergeNode in="edge-shadow-final"></feMergeNode><feMergeNode in="SourceGraphic"></feMergeNode></feMerge></filter></defs><g filter="url(#editing-shiny)"><g transform="translate(106.0162615776062, 97.39218711853027)"><path d="M27.01-20.61L39.94-21.76L39.94-21.76Q35.33-11.65 35.33 0.06L35.33 0.06L35.33 0.06Q33.60 1.28 31.07 1.28L31.07 1.28L31.07 1.28Q28.54 1.28 26.94 0.10L26.94 0.10L26.94 0.10Q25.34-1.09 25.02-2.30L25.02-2.30L25.02-2.30Q23.42-0.64 20.83 0.32L20.83 0.32L20.83 0.32Q18.24 1.28 15.49 1.28L15.49 1.28L15.49 1.28Q12.74 1.28 10.34 0.38L10.34 0.38L10.34 0.38Q7.94-0.51 6.08-2.50L6.08-2.50L6.08-2.50Q1.98-6.85 1.98-15.10L1.98-15.10L1.98-15.10Q1.98-27.90 8.83-35.58L8.83-35.58L8.83-35.58Q15.87-43.52 28.35-43.52L28.35-43.52L28.35-43.52Q36.99-43.52 40.06-39.04L40.06-39.04L40.06-39.04Q41.02-37.63 41.02-35.94L41.02-35.94L41.02-35.94Q41.02-34.24 40.29-32.80L40.29-32.80L40.29-32.80Q39.55-31.36 38.40-30.21L38.40-30.21L38.40-30.21Q35.65-27.65 32.26-27.65L32.26-27.65L32.26-27.65Q30.91-27.65 29.63-28.10L29.63-28.10L29.63-28.10Q29.89-30.02 29.89-32.26L29.89-32.26L29.89-32.26Q29.89-34.50 29.73-35.52L29.73-35.52L29.73-35.52Q29.57-36.54 29.18-37.38L29.18-37.38L29.18-37.38Q28.35-39.10 26.53-39.10L26.53-39.10L26.53-39.10Q24.70-39.10 22.69-37.15L22.69-37.15L22.69-37.15Q20.67-35.20 19.07-32L19.07-32L19.07-32Q15.55-24.83 15.55-16.19L15.55-16.19L15.55-16.19Q15.55-12.22 17.09-9.41L17.09-9.41L17.09-9.41Q18.75-6.34 21.70-6.34L21.70-6.34L21.70-6.34Q22.72-6.34 23.65-6.85L23.65-6.85L23.65-6.85Q24.58-7.36 24.96-7.74L24.96-7.74L27.01-20.61ZM71.17 1.28L71.17 1.28L71.17 1.28Q62.98 1.28 62.21-10.37L62.21-10.37L51.20-10.37L51.20-10.37Q49.92-7.42 49.02-4.86L49.02-4.86L47.36 0L38.40 0L58.56-42.24L72.32-42.24L75.01-11.14L75.01-11.14Q75.65-4.42 78.21-2.43L78.21-2.43L78.21-2.43Q76.35 1.28 71.17 1.28ZM56.70-23.17L53.18-15.04L62.02-15.04L61.25-31.49L61.25-33.22L56.70-23.17ZM87.36 0L80 0L91.58-42.24L104.96-42.24L107.90-18.11L119.81-42.24L131.01-42.24L132.16-10.62L132.16-10.62Q132.42-4.35 135.49-2.43L135.49-2.43L135.49-2.43Q134.78-1.15 132.74 0.06L132.74 0.06L132.74 0.06Q130.69 1.28 127.97 1.28L127.97 1.28L127.97 1.28Q125.25 1.28 123.65 0.51L123.65 0.51L123.65 0.51Q122.05-0.26 121.15-1.54L121.15-1.54L121.15-1.54Q119.55-3.84 119.55-8.26L119.55-8.26L119.55-28.03L106.94 0L99.01 0L94.53-28.74L87.36 0ZM151.49 0L137.54 0L145.66-42.24L159.74-42.24L151.49 0ZM190.27-33.92L190.27-33.92L190.27-33.92Q185.09-33.92 181.31-35.65L181.31-35.65L179.26-25.28L191.62-25.28L191.62-25.28Q191.62-21.89 189.92-19.74L189.92-19.74L189.92-19.74Q188.22-17.60 185.15-17.60L185.15-17.60L185.15-17.60Q181.82-17.60 178.75-18.82L178.75-18.82L178.75-18.82Q178.11-19.07 178.05-19.14L178.05-19.14L174.40 0L160.45 0L168.58-42.24L197.12-42.24L197.12-42.24Q197.12-38.34 195.30-36.13L195.30-36.13L195.30-36.13Q193.47-33.92 190.27-33.92ZM208.77 0L194.82 0L202.94-42.24L217.02-42.24L208.77 0ZM220.80-10.37L220.80-10.37L220.80-10.37Q218.75-11.84 218.75-14.66L218.75-14.66L218.75-14.66Q218.75-16.19 219.52-17.44L219.52-17.44L219.52-17.44Q220.29-18.69 221.82-18.88L221.82-18.88L234.43-18.88L234.43-18.88Q236.54-18.88 237.18-20.16L237.18-20.16L237.18-20.16Q238.21-19.58 238.66-18.37L238.66-18.37L238.66-18.37Q239.10-17.15 239.10-15.87L239.10-15.87L239.10-15.87Q239.10-14.59 238.11-13.34L238.11-13.34L238.11-13.34Q237.12-12.10 235.65-11.97L235.65-11.97L223.94-11.97L223.94-11.97Q222.59-11.97 221.95-11.55L221.95-11.55L221.95-11.55Q221.31-11.14 220.80-10.37ZM256.58 0L242.94 0L250.24-38.91L250.94-42.24L264.64-42.24L256.58 0ZM282.56-3.78L282.56-3.78L282.56-3.78Q280.83 1.28 274.18 1.28L274.18 1.28L274.18 1.28Q269.25 1.28 265.86-4.61L265.86-4.61L265.86-4.61Q262.40-10.50 261.76-20.10L261.76-20.10L261.76-20.10Q268.80-32.96 273.66-38.27L273.66-38.27L273.66-38.27Q278.34-43.33 283.20-43.33L283.20-43.33L283.20-43.33Q285.82-43.33 287.71-41.92L287.71-41.92L287.71-41.92Q289.60-40.51 290.05-38.27L290.05-38.27L290.05-38.27Q287.87-37.38 286.85-36.67L286.85-36.67L286.85-36.67Q284.29-34.75 280.83-30.46L280.83-30.46L275.01-23.49L275.01-23.49Q273.60-21.82 273.02-21.06L273.02-21.06L273.02-21.06Q273.98-15.68 276.86-10.37L276.86-10.37L276.86-10.37Q279.62-5.31 282.56-3.78Z" fill="url(#editing-shiny-gradient)"></path></g></g><g filter="url(#editing-shiny2)"><g transform="translate(105.7428240776062, 97.39999961853027)"><path d="M27.01-20.61L39.94-21.76L39.94-21.76Q35.33-11.65 35.33 0.06L35.33 0.06L35.33 0.06Q33.60 1.28 31.07 1.28L31.07 1.28L31.07 1.28Q28.54 1.28 26.94 0.10L26.94 0.10L26.94 0.10Q25.34-1.09 25.02-2.30L25.02-2.30L25.02-2.30Q23.42-0.64 20.83 0.32L20.83 0.32L20.83 0.32Q18.24 1.28 15.49 1.28L15.49 1.28L15.49 1.28Q12.74 1.28 10.34 0.38L10.34 0.38L10.34 0.38Q7.94-0.51 6.08-2.50L6.08-2.50L6.08-2.50Q1.98-6.85 1.98-15.10L1.98-15.10L1.98-15.10Q1.98-27.90 8.83-35.58L8.83-35.58L8.83-35.58Q15.87-43.52 28.35-43.52L28.35-43.52L28.35-43.52Q36.99-43.52 40.06-39.04L40.06-39.04L40.06-39.04Q41.02-37.63 41.02-35.94L41.02-35.94L41.02-35.94Q41.02-34.24 40.29-32.80L40.29-32.80L40.29-32.80Q39.55-31.36 38.40-30.21L38.40-30.21L38.40-30.21Q35.65-27.65 32.26-27.65L32.26-27.65L32.26-27.65Q30.91-27.65 29.63-28.10L29.63-28.10L29.63-28.10Q29.89-30.02 29.89-32.26L29.89-32.26L29.89-32.26Q29.89-34.50 29.73-35.52L29.73-35.52L29.73-35.52Q29.57-36.54 29.18-37.38L29.18-37.38L29.18-37.38Q28.35-39.10 26.53-39.10L26.53-39.10L26.53-39.10Q24.70-39.10 22.69-37.15L22.69-37.15L22.69-37.15Q20.67-35.20 19.07-32L19.07-32L19.07-32Q15.55-24.83 15.55-16.19L15.55-16.19L15.55-16.19Q15.55-12.22 17.09-9.41L17.09-9.41L17.09-9.41Q18.75-6.34 21.70-6.34L21.70-6.34L21.70-6.34Q22.72-6.34 23.65-6.85L23.65-6.85L23.65-6.85Q24.58-7.36 24.96-7.74L24.96-7.74L27.01-20.61ZM71.17 1.28L71.17 1.28L71.17 1.28Q62.98 1.28 62.21-10.37L62.21-10.37L51.20-10.37L51.20-10.37Q49.92-7.42 49.02-4.86L49.02-4.86L47.36 0L38.40 0L58.56-42.24L72.32-42.24L75.01-11.14L75.01-11.14Q75.65-4.42 78.21-2.43L78.21-2.43L78.21-2.43Q76.35 1.28 71.17 1.28ZM56.70-23.17L53.18-15.04L62.02-15.04L61.25-31.49L61.25-33.22L56.70-23.17ZM87.36 0L80 0L91.58-42.24L104.96-42.24L107.90-18.11L119.81-42.24L131.01-42.24L132.16-10.62L132.16-10.62Q132.42-4.35 135.49-2.43L135.49-2.43L135.49-2.43Q134.78-1.15 132.74 0.06L132.74 0.06L132.74 0.06Q130.69 1.28 127.97 1.28L127.97 1.28L127.97 1.28Q125.25 1.28 123.65 0.51L123.65 0.51L123.65 0.51Q122.05-0.26 121.15-1.54L121.15-1.54L121.15-1.54Q119.55-3.84 119.55-8.26L119.55-8.26L119.55-28.03L106.94 0L99.01 0L94.53-28.74L87.36 0ZM151.49 0L137.54 0L145.66-42.24L159.74-42.24L151.49 0ZM190.27-33.92L190.27-33.92L190.27-33.92Q185.09-33.92 181.31-35.65L181.31-35.65L179.26-25.28L191.62-25.28L191.62-25.28Q191.62-21.89 189.92-19.74L189.92-19.74L189.92-19.74Q188.22-17.60 185.15-17.60L185.15-17.60L185.15-17.60Q181.82-17.60 178.75-18.82L178.75-18.82L178.75-18.82Q178.11-19.07 178.05-19.14L178.05-19.14L174.40 0L160.45 0L168.58-42.24L197.12-42.24L197.12-42.24Q197.12-38.34 195.30-36.13L195.30-36.13L195.30-36.13Q193.47-33.92 190.27-33.92ZM208.77 0L194.82 0L202.94-42.24L217.02-42.24L208.77 0ZM220.80-10.37L220.80-10.37L220.80-10.37Q218.75-11.84 218.75-14.66L218.75-14.66L218.75-14.66Q218.75-16.19 219.52-17.44L219.52-17.44L219.52-17.44Q220.29-18.69 221.82-18.88L221.82-18.88L234.43-18.88L234.43-18.88Q236.54-18.88 237.18-20.16L237.18-20.16L237.18-20.16Q238.21-19.58 238.66-18.37L238.66-18.37L238.66-18.37Q239.10-17.15 239.10-15.87L239.10-15.87L239.10-15.87Q239.10-14.59 238.11-13.34L238.11-13.34L238.11-13.34Q237.12-12.10 235.65-11.97L235.65-11.97L223.94-11.97L223.94-11.97Q222.59-11.97 221.95-11.55L221.95-11.55L221.95-11.55Q221.31-11.14 220.80-10.37ZM256.58 0L242.94 0L250.24-38.91L250.94-42.24L264.64-42.24L256.58 0ZM282.56-3.78L282.56-3.78L282.56-3.78Q280.83 1.28 274.18 1.28L274.18 1.28L274.18 1.28Q269.25 1.28 265.86-4.61L265.86-4.61L265.86-4.61Q262.40-10.50 261.76-20.10L261.76-20.10L261.76-20.10Q268.80-32.96 273.66-38.27L273.66-38.27L273.66-38.27Q278.34-43.33 283.20-43.33L283.20-43.33L283.20-43.33Q285.82-43.33 287.71-41.92L287.71-41.92L287.71-41.92Q289.60-40.51 290.05-38.27L290.05-38.27L290.05-38.27Q287.87-37.38 286.85-36.67L286.85-36.67L286.85-36.67Q284.29-34.75 280.83-30.46L280.83-30.46L275.01-23.49L275.01-23.49Q273.60-21.82 273.02-21.06L273.02-21.06L273.02-21.06Q273.98-15.68 276.86-10.37L276.86-10.37L276.86-10.37Q279.62-5.31 282.56-3.78Z" fill="url(#editing-shiny-gradient2)"></path></g></g><style>text {
  font-size: 64px;
  font-family: Arial Black;
  dominant-baseline: central;
  text-anchor: middle;
}</style></svg>